<svg width="16" height="24" viewBox="0 0 16 24" fill="none" xmlns="http://www.w3.org/2000/svg">
<path d="M14.3088 12.4033L6.80958 17.9033C6.71938 17.9651 6.61155 17.9959 6.50231 17.9912C6.39308 17.9864 6.28835 17.9462 6.20391 17.8768C6.11946 17.8073 6.05987 17.7123 6.0341 17.606C6.00833 17.4998 6.01778 17.388 6.06103 17.2876L8.54513 12L6.06103 6.7124C6.01723 6.61193 6.00738 6.49991 6.03298 6.39334C6.05858 6.28677 6.11823 6.19145 6.20288 6.12183C6.28754 6.05221 6.39258 6.0121 6.50209 6.00756C6.6116 6.00303 6.71961 6.03432 6.80973 6.0967L14.309 11.5967C14.3714 11.6438 14.4221 11.7047 14.457 11.7747C14.4918 11.8447 14.51 11.9218 14.51 12C14.51 12.0782 14.4918 12.1554 14.4569 12.2253C14.422 12.2953 14.3713 12.3562 14.3088 12.4033ZM7.44473 11.8491L5.03903 6.30125C5.00027 6.21177 4.93619 6.13558 4.85468 6.08206C4.77317 6.02853 4.67779 6.00001 4.58028 6H1.98583C1.9035 6.00117 1.8227 6.02247 1.75049 6.06204C1.67829 6.10161 1.61686 6.15825 1.57156 6.22701C1.52627 6.29577 1.49849 6.37458 1.49065 6.45654C1.48281 6.53851 1.49514 6.62115 1.52658 6.69725L3.84593 12.0918L1.52903 17.2968C1.49639 17.373 1.48304 17.4561 1.49013 17.5387C1.49723 17.6212 1.52457 17.7008 1.56973 17.7703C1.61488 17.8398 1.67647 17.8972 1.74904 17.9372C1.82162 17.9773 1.90294 17.9988 1.98583 18H4.58033C4.6773 18 4.77219 17.9718 4.85342 17.9188C4.93465 17.8658 4.99872 17.7904 5.03783 17.7016L7.44333 12.2495C7.47114 12.1865 7.48562 12.1183 7.48586 12.0494C7.4861 11.9805 7.4721 11.9123 7.44473 11.8491Z" fill="#2A9D8F"/>
</svg>
